<svg width="118" height="34" viewBox="0 0 118 34" fill="none" xmlns="http://www.w3.org/2000/svg">
<path d="M12.0391 4.82529V13.8213H2.06814V4.82529H3.95314V12.3133H6.16314V4.82529H7.94414V12.3133H10.1671V4.82529H12.0391ZM20.7243 13.8213H18.8393V10.2073C18.8393 8.97662 18.9303 7.82396 19.1123 6.74929L16.2783 13.8213H13.9383V4.82529H15.8233V8.47829C15.8233 9.20629 15.7973 9.81296 15.7453 10.2983C15.7019 10.775 15.6369 11.3036 15.5503 11.8843L18.4363 4.82529H20.7243V13.8213ZM32.3199 9.27129C32.3199 10.5626 31.9472 11.542 31.2019 12.2093C30.4565 12.868 29.4209 13.219 28.0949 13.2623V14.3153H26.2359V13.2493C24.8925 13.1886 23.8525 12.8333 23.1159 12.1833C22.3792 11.5246 22.0109 10.567 22.0109 9.31029C22.0109 8.01896 22.3835 7.04396 23.1289 6.38529C23.8742 5.71796 24.9099 5.36262 26.2359 5.31929V4.34429H28.0949V5.33229C29.4382 5.39296 30.4782 5.75262 31.2149 6.41129C31.9515 7.06129 32.3199 8.01462 32.3199 9.27129ZM28.0169 12.0403C28.8402 11.9883 29.4382 11.7413 29.8109 11.2993C30.1835 10.8573 30.3699 10.1813 30.3699 9.27129C30.3699 8.37862 30.1792 7.71129 29.7979 7.26929C29.4165 6.82729 28.8229 6.58462 28.0169 6.54129V12.0403ZM23.9609 9.31029C23.9609 10.203 24.1515 10.8703 24.5329 11.3123C24.9142 11.7543 25.5079 11.997 26.3139 12.0403V6.54129C25.4905 6.59329 24.8925 6.84029 24.5199 7.28229C24.1472 7.72429 23.9609 8.40029 23.9609 9.31029ZM39.1133 4.82529L38.9053 6.32029H36.6303V13.8213H34.7193V6.32029H32.3273V4.82529H39.1133Z" fill="#9534D2"/>
<path d="M5.61714 19.9376C6.18047 19.9376 6.67014 20.0199 7.08614 20.1846C7.50214 20.3406 7.90947 20.5833 8.30814 20.9126L7.35914 22.0176C6.83914 21.5929 6.29314 21.3806 5.72114 21.3806C5.07981 21.3806 4.56847 21.6449 4.18714 22.1736C3.81447 22.6936 3.62814 23.5126 3.62814 24.6306C3.62814 25.7226 3.81447 26.5329 4.18714 27.0616C4.56847 27.5816 5.08414 27.8416 5.73414 27.8416C6.07214 27.8416 6.37981 27.7809 6.65714 27.6596C6.93447 27.5296 7.22481 27.3476 7.52814 27.1136L8.41214 28.2186C8.09147 28.5479 7.69281 28.8209 7.21614 29.0376C6.74814 29.2456 6.22814 29.3496 5.65614 29.3496C4.85014 29.3496 4.14381 29.1676 3.53714 28.8036C2.93047 28.4396 2.45814 27.9066 2.12014 27.2046C1.78214 26.4939 1.61314 25.6359 1.61314 24.6306C1.61314 23.6513 1.78647 22.8106 2.13314 22.1086C2.47981 21.3979 2.95647 20.8606 3.56314 20.4966C4.16981 20.1239 4.85447 19.9376 5.61714 19.9376ZM11.4059 20.1456V29.1416H9.4949V20.1456H11.4059ZM20.1022 29.1416H17.6452L14.7852 22.0046C14.8632 22.6199 14.9239 23.2006 14.9672 23.7466C15.0192 24.2839 15.0452 24.9166 15.0452 25.6446V29.1416H13.3162V20.1456H15.7212L18.6332 27.2956C18.4599 26.1343 18.3732 25.0683 18.3732 24.0976V20.1456H20.1022V29.1416ZM27.3688 20.1456L27.1608 21.5366H23.9108V23.8766H26.7448V25.2546H23.9108V27.7376H27.3948V29.1416H21.9998V20.1456H27.3688ZM37.5909 29.1416H35.7189L35.5239 25.4886C35.4633 24.3966 35.4329 23.4693 35.4329 22.7066C35.4329 22.2993 35.4373 22.0046 35.4459 21.8226L33.9249 28.1796H32.1179L30.4929 21.8096C30.5276 22.3383 30.5449 22.9319 30.5449 23.5906C30.5449 24.2926 30.5276 24.9383 30.4929 25.5276L30.2979 29.1416H28.4389L29.1409 20.1456H31.5719L33.0539 26.3466L34.4449 20.1456H36.9019L37.5909 29.1416ZM43.8203 29.1416L43.3133 27.1266H40.4923L39.9853 29.1416H37.9963L40.7653 20.1456H43.0923L45.8483 29.1416H43.8203ZM40.8563 25.7096H42.9493L41.8963 21.5626L40.8563 25.7096Z" fill="#9534D2"/>
<path d="M60.5638 17.9108H57.9442C56.8284 17.9108 55.9229 18.8163 55.9229 19.9321C55.9229 21.0478 56.8284 21.9534 57.9442 21.9534H61.1256C61.7946 21.9534 62.3777 22.3943 62.6178 23.0188C63.2487 24.6599 64.15 26.1675 65.2666 27.4863C65.8582 28.1843 65.3704 29.2543 64.4554 29.2543H61.7455C60.778 29.2543 59.9439 29.9981 59.8981 30.9656C59.8496 31.9978 60.6729 32.8508 61.6943 32.8508H74.989C75.6951 32.9492 76.4147 33.0004 77.1477 33.0004C85.8096 33.0004 92.8208 25.9218 92.7089 17.2316C92.5998 8.82984 85.7409 1.97769 77.3391 1.87527C76.1613 1.86045 75.0132 1.97769 73.9083 2.21215C71.2671 2.77272 68.5707 3.03145 65.8716 3.03145H52.9866C51.8978 3.03145 50.96 3.86826 50.9088 4.95706C50.8535 6.11862 51.7793 7.07806 52.9287 7.07806H61.2092C62.9192 7.07806 64.035 8.8824 63.2615 10.4064C63.2521 10.424 63.244 10.4415 63.2346 10.459C62.8465 11.2338 62.0514 11.7216 61.1836 11.7216H50.588C49.4992 11.7216 48.5614 12.5584 48.5102 13.6472C48.4549 14.8088 49.3807 15.7682 50.5301 15.7682H60.5624C61.1701 15.7682 61.6553 16.2722 61.6323 16.8799C61.6108 17.4553 61.1378 17.9095 60.5624 17.9095L60.5638 17.9108ZM72.7831 8.10622C72.9232 5.92997 74.6912 4.16472 76.8674 4.02862C79.5072 3.86422 81.6808 6.03912 81.5137 8.67892C81.3763 10.8565 79.6096 12.6231 77.4307 12.7606C74.7869 12.9277 72.6106 10.7474 72.7817 8.10487L72.7831 8.10622ZM64.0309 15.0756C63.8679 12.4358 66.0428 10.2636 68.6826 10.4307C70.8615 10.5681 72.6281 12.3361 72.7642 14.515C72.93 17.1589 70.7483 19.3338 68.1058 19.1626C65.9296 19.0212 64.1657 17.2532 64.0296 15.077L64.0309 15.0756ZM75.8797 25.1254C75.7423 27.303 73.9757 29.0696 71.7981 29.2071C69.1542 29.3742 66.9753 27.1939 67.1464 24.5514C67.2879 22.3738 69.0558 20.6099 71.2334 20.4738C73.8732 20.3094 76.0455 22.4856 75.8797 25.1254ZM77.3997 18.8702C76.4066 19.036 75.5576 18.1911 75.718 17.198C75.815 16.597 76.2974 16.1105 76.8984 16.0094C77.8916 15.8437 78.7432 16.6872 78.5828 17.6817C78.4858 18.2841 78.0021 18.7705 77.3997 18.8716V18.8702ZM87.1531 25.1227C87.017 27.3003 85.2517 29.0683 83.0741 29.2071C80.4303 29.3769 78.2513 27.1966 78.4211 24.5541C78.5599 22.3778 80.3252 20.6112 82.5014 20.4738C85.1399 20.3067 87.3175 22.4829 87.1531 25.1227ZM85.9012 19.1721C83.4838 19.1721 81.5245 17.2128 81.5245 14.798C81.5245 12.3833 83.6549 10.2555 86.2139 10.4334C88.3726 10.583 90.1203 12.3334 90.2672 14.4921C90.441 17.0484 88.4184 19.1734 85.9026 19.1734L85.9012 19.1721Z" fill="#9534D2"/>
<rect x="52.7734" y="29.3213" width="5.42906" height="3.61937" rx="1.80969" fill="#9534D2"/>
<rect x="42.0664" y="3.08105" width="6.78633" height="3.92099" rx="1.96049" fill="#9534D2"/>
</svg>
